{"buffers":[{"uri":"packspiral.bin","byteLength":13935520}],"asset":{"version":"2.0","generator":"gltfpack 0.15"},"extensionsUsed":["KHR_mesh_quantization","KHR_texture_transform"],"extensionsRequired":["KHR_mesh_quantization"],"bufferViews":[{"buffer":0,"byteOffset":0,"byteLength":223114},{"buffer":0,"byteOffset":223116,"byteLength":605018},{"buffer":0,"byteOffset":828136,"byteLength":74566},{"buffer":0,"byteOffset":902704,"byteLength":3226384,"byteStride":8,"target":34962},{"buffer":0,"byteOffset":4129088,"byteLength":1613192,"byteStride":4,"target":34962},{"buffer":0,"byteOffset":5742280,"byteLength":6503280,"target":34963},{"buffer":0,"byteOffset":12245560,"byteLength":1219944,"byteStride":4,"target":34962},{"buffer":0,"byteOffset":13465504,"byteLength":470016,"target":34963}],"accessors":[{"bufferView":3,"byteOffset":0,"componentType":5123,"count":98312,"type":"VEC3","min":[3368,747,0],"max":[9569,2433,2425]},{"bufferView":4,"byteOffset":0,"componentType":5120,"count":98312,"type":"VEC3","normalized":true},{"bufferView":5,"byteOffset":0,"componentType":5125,"count":589824,"type":"SCALAR"},{"bufferView":3,"byteOffset":786496,"componentType":5123,"count":261738,"type":"VEC3","min":[0,0,431],"max":[16082,2629,3405]},{"bufferView":4,"byteOffset":393248,"componentType":5120,"count":261738,"type":"VEC3","normalized":true},{"bufferView":6,"byteOffset":0,"componentType":5123,"count":261738,"type":"VEC2"},{"bufferView":5,"byteOffset":2359296,"componentType":5125,"count":1035996,"type":"SCALAR"},{"bufferView":3,"byteOffset":2880400,"componentType":5123,"count":43248,"type":"VEC3","min":[150,52,1923],"max":[16383,1485,3388]},{"bufferView":4,"byteOffset":1440200,"componentType":5120,"count":43248,"type":"VEC3","normalized":true},{"bufferView":6,"byteOffset":1046952,"componentType":5123,"count":43248,"type":"VEC2"},{"bufferView":7,"byteOffset":0,"componentType":5123,"count":235008,"type":"SCALAR"}],"images":[{"bufferView":0,"mimeType":"image/jpeg"},{"bufferView":1,"mimeType":"image/jpeg"},{"bufferView":2,"mimeType":"image/png"}],"textures":[{"source":0},{"source":1},{"source":2}],"materials":[{"name":"Mat","pbrMetallicRoughness":{"baseColorFactor":[0.800000012,0.800000012,0.800000012,1],"baseColorTexture":{"index":0,"texCoord":0,"extensions":{"KHR_texture_transform":{"offset":[-22.5421352,-60.8159027],"scale":[0.01125379,0.0206002519]}}},"metallicFactor":0,"roughnessFactor":0.242500007},"normalTexture":{"index":1,"texCoord":0,"extensions":{"KHR_texture_transform":{"offset":[-22.5421352,-60.8159027],"scale":[0.01125379,0.0206002519]}}}},{"name":"Mat.1","pbrMetallicRoughness":{"baseColorFactor":[0.800000012,0.800000012,0.800000012,1],"metallicFactor":0,"roughnessFactor":0.242500007}},{"name":"Mat.2","pbrMetallicRoughness":{"baseColorFactor":[0,0,0,1],"baseColorTexture":{"index":2,"texCoord":0,"extensions":{"KHR_texture_transform":{"offset":[0,0],"scale":[0.000244200259,0.000244200259]}}},"metallicFactor":0,"roughnessFactor":0.25},"alphaMode":"BLEND"}],"meshes":[{"primitives":[{"attributes":{"POSITION":0,"NORMAL":1},"mode":4,"indices":2,"material":1},{"attributes":{"POSITION":3,"NORMAL":4,"TEXCOORD_0":5},"mode":4,"indices":6,"material":0},{"attributes":{"POSITION":7,"NORMAL":8,"TEXCOORD_0":9},"mode":4,"indices":10,"material":2}]}],"nodes":[{"mesh":0,"translation":[-13.4622221,-1.45301592,-4.93866301],"scale":[0.00189051789,0.00189051789,0.00189051789]}],"scenes":[{"nodes":[0]}],"scene":0}